<mxfile host="Electron" modified="2024-05-23T22:08:18.172Z" agent="Mozilla/5.0 (Windows NT 10.0; Win64; x64) AppleWebKit/537.36 (KHTML, like Gecko) draw.io/24.4.6 Chrome/124.0.6367.207 Electron/30.0.6 Safari/537.36" etag="8mb0G4G0YqZDJTLg0Iak" version="24.4.6" type="device">
  <diagram name="Страница — 1" id="JFn2mtWqg-edfEXCA0IU">
    <mxGraphModel dx="1925" dy="828" grid="1" gridSize="10" guides="1" tooltips="1" connect="1" arrows="1" fold="1" page="1" pageScale="1" pageWidth="827" pageHeight="1169" math="0" shadow="0">
      <root>
        <mxCell id="0" />
        <mxCell id="1" parent="0" />
        <mxCell id="1Ejf_n-R20Lj9gPti5Yz-16" value="&lt;font style=&quot;font-size: 16px;&quot;&gt;SimulatorView&lt;/font&gt;" style="rounded=0;whiteSpace=wrap;html=1;" vertex="1" parent="1">
          <mxGeometry width="120" height="40" as="geometry" />
        </mxCell>
        <mxCell id="1Ejf_n-R20Lj9gPti5Yz-35" style="edgeStyle=orthogonalEdgeStyle;rounded=0;orthogonalLoop=1;jettySize=auto;html=1;exitX=0.5;exitY=0;exitDx=0;exitDy=0;entryX=0.5;entryY=1;entryDx=0;entryDy=0;" edge="1" parent="1" source="1Ejf_n-R20Lj9gPti5Yz-17" target="1Ejf_n-R20Lj9gPti5Yz-16">
          <mxGeometry relative="1" as="geometry" />
        </mxCell>
        <mxCell id="1Ejf_n-R20Lj9gPti5Yz-36" style="edgeStyle=orthogonalEdgeStyle;rounded=0;orthogonalLoop=1;jettySize=auto;html=1;exitX=0.25;exitY=1;exitDx=0;exitDy=0;entryX=0.5;entryY=0;entryDx=0;entryDy=0;" edge="1" parent="1" source="1Ejf_n-R20Lj9gPti5Yz-17" target="1Ejf_n-R20Lj9gPti5Yz-21">
          <mxGeometry relative="1" as="geometry" />
        </mxCell>
        <mxCell id="1Ejf_n-R20Lj9gPti5Yz-38" style="edgeStyle=orthogonalEdgeStyle;rounded=0;orthogonalLoop=1;jettySize=auto;html=1;exitX=0.75;exitY=1;exitDx=0;exitDy=0;entryX=0.5;entryY=0;entryDx=0;entryDy=0;" edge="1" parent="1" source="1Ejf_n-R20Lj9gPti5Yz-17" target="1Ejf_n-R20Lj9gPti5Yz-20">
          <mxGeometry relative="1" as="geometry" />
        </mxCell>
        <mxCell id="1Ejf_n-R20Lj9gPti5Yz-17" value="&lt;font style=&quot;font-size: 16px;&quot;&gt;AnimatedView&lt;/font&gt;" style="rounded=0;whiteSpace=wrap;html=1;" vertex="1" parent="1">
          <mxGeometry y="80" width="120" height="40" as="geometry" />
        </mxCell>
        <mxCell id="1Ejf_n-R20Lj9gPti5Yz-40" style="edgeStyle=orthogonalEdgeStyle;rounded=0;orthogonalLoop=1;jettySize=auto;html=1;exitX=0.5;exitY=1;exitDx=0;exitDy=0;entryX=0.5;entryY=0;entryDx=0;entryDy=0;" edge="1" parent="1" source="1Ejf_n-R20Lj9gPti5Yz-18" target="1Ejf_n-R20Lj9gPti5Yz-26">
          <mxGeometry relative="1" as="geometry" />
        </mxCell>
        <mxCell id="1Ejf_n-R20Lj9gPti5Yz-18" value="&lt;font style=&quot;font-size: 16px;&quot;&gt;GUI&lt;/font&gt;" style="rounded=0;whiteSpace=wrap;html=1;" vertex="1" parent="1">
          <mxGeometry x="360" width="120" height="40" as="geometry" />
        </mxCell>
        <mxCell id="1Ejf_n-R20Lj9gPti5Yz-20" value="&lt;font style=&quot;font-size: 16px;&quot;&gt;FieldView&lt;/font&gt;" style="rounded=0;whiteSpace=wrap;html=1;" vertex="1" parent="1">
          <mxGeometry x="120" y="160" width="120" height="40" as="geometry" />
        </mxCell>
        <mxCell id="1Ejf_n-R20Lj9gPti5Yz-37" style="edgeStyle=orthogonalEdgeStyle;rounded=0;orthogonalLoop=1;jettySize=auto;html=1;exitX=0.5;exitY=1;exitDx=0;exitDy=0;entryX=0.5;entryY=0;entryDx=0;entryDy=0;" edge="1" parent="1" source="1Ejf_n-R20Lj9gPti5Yz-21" target="1Ejf_n-R20Lj9gPti5Yz-22">
          <mxGeometry relative="1" as="geometry" />
        </mxCell>
        <mxCell id="1Ejf_n-R20Lj9gPti5Yz-21" value="&lt;font style=&quot;font-size: 16px;&quot;&gt;FiledStats&lt;/font&gt;" style="rounded=0;whiteSpace=wrap;html=1;" vertex="1" parent="1">
          <mxGeometry x="-120" y="160" width="120" height="40" as="geometry" />
        </mxCell>
        <mxCell id="1Ejf_n-R20Lj9gPti5Yz-22" value="&lt;font style=&quot;font-size: 16px;&quot;&gt;Counter&lt;/font&gt;" style="rounded=0;whiteSpace=wrap;html=1;" vertex="1" parent="1">
          <mxGeometry x="-120" y="240" width="120" height="40" as="geometry" />
        </mxCell>
        <mxCell id="1Ejf_n-R20Lj9gPti5Yz-23" value="&lt;font style=&quot;font-size: 16px;&quot;&gt;Grass&lt;/font&gt;" style="rounded=0;whiteSpace=wrap;html=1;" vertex="1" parent="1">
          <mxGeometry x="480" y="160" width="120" height="40" as="geometry" />
        </mxCell>
        <mxCell id="1Ejf_n-R20Lj9gPti5Yz-45" style="edgeStyle=orthogonalEdgeStyle;rounded=0;orthogonalLoop=1;jettySize=auto;html=1;exitX=0;exitY=0.5;exitDx=0;exitDy=0;entryX=0.75;entryY=0;entryDx=0;entryDy=0;" edge="1" parent="1" source="1Ejf_n-R20Lj9gPti5Yz-24" target="1Ejf_n-R20Lj9gPti5Yz-25">
          <mxGeometry relative="1" as="geometry" />
        </mxCell>
        <mxCell id="1Ejf_n-R20Lj9gPti5Yz-24" value="&lt;font style=&quot;font-size: 16px;&quot;&gt;Field&lt;/font&gt;" style="rounded=0;whiteSpace=wrap;html=1;" vertex="1" parent="1">
          <mxGeometry x="360" y="240" width="120" height="40" as="geometry" />
        </mxCell>
        <mxCell id="1Ejf_n-R20Lj9gPti5Yz-25" value="&lt;font style=&quot;font-size: 16px;&quot;&gt;Actor&lt;/font&gt;" style="rounded=0;whiteSpace=wrap;html=1;" vertex="1" parent="1">
          <mxGeometry x="240" y="320" width="120" height="40" as="geometry" />
        </mxCell>
        <mxCell id="1Ejf_n-R20Lj9gPti5Yz-39" style="edgeStyle=orthogonalEdgeStyle;rounded=0;orthogonalLoop=1;jettySize=auto;html=1;exitX=0;exitY=0.5;exitDx=0;exitDy=0;entryX=1;entryY=0.5;entryDx=0;entryDy=0;" edge="1" parent="1" source="1Ejf_n-R20Lj9gPti5Yz-26" target="1Ejf_n-R20Lj9gPti5Yz-17">
          <mxGeometry relative="1" as="geometry" />
        </mxCell>
        <mxCell id="1Ejf_n-R20Lj9gPti5Yz-41" style="edgeStyle=orthogonalEdgeStyle;rounded=0;orthogonalLoop=1;jettySize=auto;html=1;exitX=0.75;exitY=1;exitDx=0;exitDy=0;entryX=0.5;entryY=0;entryDx=0;entryDy=0;" edge="1" parent="1" source="1Ejf_n-R20Lj9gPti5Yz-26" target="1Ejf_n-R20Lj9gPti5Yz-23">
          <mxGeometry relative="1" as="geometry" />
        </mxCell>
        <mxCell id="1Ejf_n-R20Lj9gPti5Yz-42" style="edgeStyle=orthogonalEdgeStyle;rounded=0;orthogonalLoop=1;jettySize=auto;html=1;exitX=0.5;exitY=1;exitDx=0;exitDy=0;entryX=0.5;entryY=0;entryDx=0;entryDy=0;" edge="1" parent="1" source="1Ejf_n-R20Lj9gPti5Yz-26" target="1Ejf_n-R20Lj9gPti5Yz-24">
          <mxGeometry relative="1" as="geometry" />
        </mxCell>
        <mxCell id="1Ejf_n-R20Lj9gPti5Yz-44" style="edgeStyle=orthogonalEdgeStyle;rounded=0;orthogonalLoop=1;jettySize=auto;html=1;exitX=0.25;exitY=1;exitDx=0;exitDy=0;entryX=0.25;entryY=0;entryDx=0;entryDy=0;" edge="1" parent="1" source="1Ejf_n-R20Lj9gPti5Yz-26" target="1Ejf_n-R20Lj9gPti5Yz-25">
          <mxGeometry relative="1" as="geometry" />
        </mxCell>
        <mxCell id="1Ejf_n-R20Lj9gPti5Yz-26" value="&lt;font style=&quot;font-size: 16px;&quot;&gt;Simulator&lt;/font&gt;" style="rounded=0;whiteSpace=wrap;html=1;" vertex="1" parent="1">
          <mxGeometry x="360" y="80" width="120" height="40" as="geometry" />
        </mxCell>
        <mxCell id="1Ejf_n-R20Lj9gPti5Yz-47" style="edgeStyle=orthogonalEdgeStyle;rounded=0;orthogonalLoop=1;jettySize=auto;html=1;exitX=0.5;exitY=0;exitDx=0;exitDy=0;entryX=0.25;entryY=1;entryDx=0;entryDy=0;" edge="1" parent="1" source="1Ejf_n-R20Lj9gPti5Yz-27" target="1Ejf_n-R20Lj9gPti5Yz-25">
          <mxGeometry relative="1" as="geometry" />
        </mxCell>
        <mxCell id="1Ejf_n-R20Lj9gPti5Yz-53" style="edgeStyle=orthogonalEdgeStyle;rounded=0;orthogonalLoop=1;jettySize=auto;html=1;exitX=0.75;exitY=1;exitDx=0;exitDy=0;entryX=0.25;entryY=0;entryDx=0;entryDy=0;" edge="1" parent="1" source="1Ejf_n-R20Lj9gPti5Yz-27" target="1Ejf_n-R20Lj9gPti5Yz-32">
          <mxGeometry relative="1" as="geometry" />
        </mxCell>
        <mxCell id="1Ejf_n-R20Lj9gPti5Yz-27" value="&lt;font style=&quot;font-size: 16px;&quot;&gt;Human&lt;/font&gt;" style="rounded=0;whiteSpace=wrap;html=1;" vertex="1" parent="1">
          <mxGeometry y="400" width="120" height="40" as="geometry" />
        </mxCell>
        <mxCell id="1Ejf_n-R20Lj9gPti5Yz-46" style="edgeStyle=orthogonalEdgeStyle;rounded=0;orthogonalLoop=1;jettySize=auto;html=1;exitX=0.5;exitY=0;exitDx=0;exitDy=0;entryX=0.75;entryY=1;entryDx=0;entryDy=0;" edge="1" parent="1" source="1Ejf_n-R20Lj9gPti5Yz-28" target="1Ejf_n-R20Lj9gPti5Yz-25">
          <mxGeometry relative="1" as="geometry" />
        </mxCell>
        <mxCell id="1Ejf_n-R20Lj9gPti5Yz-54" style="edgeStyle=orthogonalEdgeStyle;rounded=0;orthogonalLoop=1;jettySize=auto;html=1;exitX=0;exitY=0.5;exitDx=0;exitDy=0;entryX=0.75;entryY=0;entryDx=0;entryDy=0;" edge="1" parent="1" source="1Ejf_n-R20Lj9gPti5Yz-28" target="1Ejf_n-R20Lj9gPti5Yz-32">
          <mxGeometry relative="1" as="geometry" />
        </mxCell>
        <mxCell id="1Ejf_n-R20Lj9gPti5Yz-28" value="&lt;font style=&quot;font-size: 16px;&quot;&gt;Animal&lt;/font&gt;" style="rounded=0;whiteSpace=wrap;html=1;" vertex="1" parent="1">
          <mxGeometry x="360" y="400" width="120" height="40" as="geometry" />
        </mxCell>
        <mxCell id="1Ejf_n-R20Lj9gPti5Yz-52" style="edgeStyle=orthogonalEdgeStyle;rounded=0;orthogonalLoop=1;jettySize=auto;html=1;exitX=0.5;exitY=0;exitDx=0;exitDy=0;entryX=0.75;entryY=1;entryDx=0;entryDy=0;" edge="1" parent="1" source="1Ejf_n-R20Lj9gPti5Yz-29" target="1Ejf_n-R20Lj9gPti5Yz-28">
          <mxGeometry relative="1" as="geometry" />
        </mxCell>
        <mxCell id="1Ejf_n-R20Lj9gPti5Yz-29" value="&lt;font style=&quot;font-size: 16px;&quot;&gt;Bird&lt;/font&gt;" style="rounded=0;whiteSpace=wrap;html=1;" vertex="1" parent="1">
          <mxGeometry x="480" y="480" width="120" height="40" as="geometry" />
        </mxCell>
        <mxCell id="1Ejf_n-R20Lj9gPti5Yz-51" style="edgeStyle=orthogonalEdgeStyle;rounded=0;orthogonalLoop=1;jettySize=auto;html=1;exitX=0.5;exitY=0;exitDx=0;exitDy=0;entryX=0.5;entryY=1;entryDx=0;entryDy=0;" edge="1" parent="1" source="1Ejf_n-R20Lj9gPti5Yz-30" target="1Ejf_n-R20Lj9gPti5Yz-28">
          <mxGeometry relative="1" as="geometry" />
        </mxCell>
        <mxCell id="1Ejf_n-R20Lj9gPti5Yz-30" value="&lt;font style=&quot;font-size: 16px;&quot;&gt;Fox&lt;/font&gt;" style="rounded=0;whiteSpace=wrap;html=1;" vertex="1" parent="1">
          <mxGeometry x="360" y="560" width="120" height="40" as="geometry" />
        </mxCell>
        <mxCell id="1Ejf_n-R20Lj9gPti5Yz-50" style="edgeStyle=orthogonalEdgeStyle;rounded=0;orthogonalLoop=1;jettySize=auto;html=1;exitX=0.5;exitY=0;exitDx=0;exitDy=0;entryX=0.25;entryY=1;entryDx=0;entryDy=0;" edge="1" parent="1" source="1Ejf_n-R20Lj9gPti5Yz-31" target="1Ejf_n-R20Lj9gPti5Yz-28">
          <mxGeometry relative="1" as="geometry" />
        </mxCell>
        <mxCell id="1Ejf_n-R20Lj9gPti5Yz-31" value="&lt;font style=&quot;font-size: 16px;&quot;&gt;Rabbit&lt;/font&gt;" style="rounded=0;whiteSpace=wrap;html=1;" vertex="1" parent="1">
          <mxGeometry x="240" y="480" width="120" height="40" as="geometry" />
        </mxCell>
        <mxCell id="1Ejf_n-R20Lj9gPti5Yz-32" value="&lt;font style=&quot;font-size: 16px;&quot;&gt;Location&lt;/font&gt;" style="rounded=0;whiteSpace=wrap;html=1;" vertex="1" parent="1">
          <mxGeometry x="120" y="560" width="120" height="40" as="geometry" />
        </mxCell>
        <mxCell id="1Ejf_n-R20Lj9gPti5Yz-48" style="edgeStyle=orthogonalEdgeStyle;rounded=0;orthogonalLoop=1;jettySize=auto;html=1;exitX=0.5;exitY=0;exitDx=0;exitDy=0;entryX=0.25;entryY=1;entryDx=0;entryDy=0;" edge="1" parent="1" source="1Ejf_n-R20Lj9gPti5Yz-33" target="1Ejf_n-R20Lj9gPti5Yz-27">
          <mxGeometry relative="1" as="geometry" />
        </mxCell>
        <mxCell id="1Ejf_n-R20Lj9gPti5Yz-33" value="&lt;font style=&quot;font-size: 16px;&quot;&gt;Hunter&lt;/font&gt;" style="rounded=0;whiteSpace=wrap;html=1;" vertex="1" parent="1">
          <mxGeometry x="-120" y="480" width="120" height="40" as="geometry" />
        </mxCell>
      </root>
    </mxGraphModel>
  </diagram>
</mxfile>
